<svg width="256" height="256" viewBox="0 0 256 256" fill="none" xmlns="http://www.w3.org/2000/svg">
  <!-- Background gradient -->
  <defs>
    <linearGradient id="bg-camera" x1="0%" y1="0%" x2="100%" y2="100%">
      <stop offset="0%" style="stop-color:#9333ea;stop-opacity:1" />
      <stop offset="100%" style="stop-color:#22c55e;stop-opacity:1" />
    </linearGradient>
    <linearGradient id="body-gradient" x1="0%" y1="0%" x2="100%" y2="100%">
      <stop offset="0%" style="stop-color:#374151;stop-opacity:1" />
      <stop offset="100%" style="stop-color:#1f2937;stop-opacity:1" />
    </linearGradient>
    <linearGradient id="lens-gradient" x1="0%" y1="0%" x2="100%" y2="100%">
      <stop offset="0%" style="stop-color:#6b7280;stop-opacity:1" />
      <stop offset="100%" style="stop-color:#111827;stop-opacity:1" />
    </linearGradient>
    <radialGradient id="lens-reflection" cx="30%" cy="30%">
      <stop offset="0%" style="stop-color:#ffffff;stop-opacity:0.8" />
      <stop offset="100%" style="stop-color:#ffffff;stop-opacity:0" />
    </radialGradient>
  </defs>
  
  <!-- Background circle -->
  <circle cx="128" cy="128" r="120" fill="url(#bg-camera)"/>
  
  <!-- Camera body -->
  <rect x="40" y="100" width="176" height="88" rx="12" ry="12" fill="url(#body-gradient)" stroke="#111827" stroke-width="2"/>
  
  <!-- Camera body highlight -->
  <rect x="42" y="102" width="172" height="4" rx="2" ry="2" fill="#ffffff" opacity="0.3"/>
  
  <!-- Viewfinder -->
  <rect x="108" y="80" width="40" height="20" rx="4" ry="4" fill="#374151" stroke="#111827" stroke-width="1"/>
  
  <!-- Flash -->
  <rect x="180" y="85" width="16" height="12" rx="2" ry="2" fill="#fbbf24"/>
  
  <!-- Lens mount (outer ring) -->
  <circle cx="128" cy="144" r="50" fill="#1f2937" stroke="#ffffff" stroke-width="2"/>
  
  <!-- Main lens -->
  <circle cx="128" cy="144" r="40" fill="url(#lens-gradient)"/>
  
  <!-- Lens reflection -->
  <circle cx="128" cy="144" r="30" fill="url(#lens-reflection)"/>
  
  <!-- Inner lens element -->
  <circle cx="128" cy="144" r="20" fill="#111827"/>
  <circle cx="128" cy="144" r="12" fill="#374151"/>
  
  <!-- Shutter button -->
  <circle cx="190" y="115" r="8" fill="#d1d5db"/>
  <circle cx="190" y="115" r="6" fill="#f3f4f6"/>
  
  <!-- Control elements -->
  <rect x="50" y="165" width="20" height="6" rx="3" ry="3" fill="#4b5563"/>
  <rect x="75" y="165" width="20" height="6" rx="3" ry="3" fill="#4b5563"/>
  <rect x="100" y="165" width="20" height="6" rx="3" ry="3" fill="#4b5563"/>
</svg>