<svg width="256" height="256" viewBox="0 0 256 256" fill="none" xmlns="http://www.w3.org/2000/svg">
  <!-- Background gradient -->
  <defs>
    <linearGradient id="bg-abstract" x1="0%" y1="0%" x2="100%" y2="100%">
      <stop offset="0%" style="stop-color:#6366f1;stop-opacity:1" />
      <stop offset="50%" style="stop-color:#8b5cf6;stop-opacity:1" />
      <stop offset="100%" style="stop-color:#ec4899;stop-opacity:1" />
    </linearGradient>
    <radialGradient id="glow-effect" cx="50%" cy="50%">
      <stop offset="0%" style="stop-color:#ffffff;stop-opacity:0.3" />
      <stop offset="100%" style="stop-color:#ffffff;stop-opacity:0" />
    </radialGradient>
  </defs>
  
  <!-- Background -->
  <rect width="256" height="256" fill="url(#bg-abstract)"/>
  
  <!-- Subtle glow overlay -->
  <circle cx="128" cy="128" r="100" fill="url(#glow-effect)"/>
  
  <!-- Main capture symbol - stylized frame -->
  <g fill="none" stroke="#ffffff" stroke-width="4" opacity="0.9">
    <!-- Outer capture frame -->
    <rect x="64" y="64" width="128" height="128" rx="8" ry="8"/>
  </g>
  
  <!-- Inner focus frame -->
  <g fill="none" stroke="#ffffff" stroke-width="2" opacity="0.7">
    <rect x="88" y="88" width="80" height="80" rx="4" ry="4" stroke-dasharray="12,6"/>
  </g>
  
  <!-- Dynamic corner elements -->
  <g fill="#ffffff" opacity="0.9">
    <!-- Top-left -->
    <path d="M 76 64 L 76 84 L 56 84 L 56 76 L 68 76 L 68 64 Z"/>
    <!-- Top-right -->
    <path d="M 180 64 L 180 84 L 200 84 L 200 76 L 188 76 L 188 64 Z"/>
    <!-- Bottom-left -->
    <path d="M 76 192 L 76 172 L 56 172 L 56 180 L 68 180 L 68 192 Z"/>
    <!-- Bottom-right -->
    <path d="M 180 192 L 180 172 L 200 172 L 200 180 L 188 180 L 188 192 Z"/>
  </g>
  
  <!-- Center capture indicator -->
  <g fill="#ffffff" opacity="0.8">
    <circle cx="128" cy="128" r="8"/>
    <circle cx="128" cy="128" r="4" fill="none" stroke="#6366f1" stroke-width="2"/>
  </g>
  
  <!-- Animated-style elements (representing capture motion) -->
  <g stroke="#ffffff" stroke-width="2" fill="none" opacity="0.6">
    <!-- Radiating lines -->
    <line x1="128" y1="32" x2="128" y2="48" stroke-linecap="round"/>
    <line x1="128" y1="208" x2="128" y2="224" stroke-linecap="round"/>
    <line x1="32" y1="128" x2="48" y2="128" stroke-linecap="round"/>
    <line x1="208" y1="128" x2="224" y2="128" stroke-linecap="round"/>
    
    <!-- Diagonal lines -->
    <line x1="56" y1="56" x2="68" y2="68" stroke-linecap="round"/>
    <line x1="188" y1="68" x2="200" y2="56" stroke-linecap="round"/>
    <line x1="68" y1="188" x2="56" y2="200" stroke-linecap="round"/>
    <line x1="200" y1="200" x2="188" y2="188" stroke-linecap="round"/>
  </g>
  
  <!-- Subtle geometric patterns -->
  <g fill="#ffffff" opacity="0.3">
    <!-- Small accent dots -->
    <circle cx="112" cy="80" r="2"/>
    <circle cx="144" cy="80" r="2"/>
    <circle cx="112" cy="176" r="2"/>
    <circle cx="144" cy="176" r="2"/>
    <circle cx="80" cy="112" r="2"/>
    <circle cx="80" cy="144" r="2"/>
    <circle cx="176" cy="112" r="2"/>
    <circle cx="176" cy="144" r="2"/>
  </g>
  
  <!-- Modern highlight effect -->
  <rect x="64" y="64" width="128" height="8" rx="4" ry="4" fill="#ffffff" opacity="0.4"/>
</svg>