<svg width="256" height="256" viewBox="0 0 256 256" fill="none" xmlns="http://www.w3.org/2000/svg">
  <!-- Background gradient -->
  <defs>
    <linearGradient id="bg-geometric" x1="0%" y1="0%" x2="100%" y2="100%">
      <stop offset="0%" style="stop-color:#ff6b35;stop-opacity:1" />
      <stop offset="100%" style="stop-color:#f7931e;stop-opacity:1" />
    </linearGradient>
    <linearGradient id="frame-gradient" x1="0%" y1="0%" x2="100%" y2="100%">
      <stop offset="0%" style="stop-color:#ffffff;stop-opacity:1" />
      <stop offset="100%" style="stop-color:#f8fafc;stop-opacity:1" />
    </linearGradient>
  </defs>
  
  <!-- Background -->
  <rect width="256" height="256" fill="url(#bg-geometric)"/>
  
  <!-- Subtle radial overlay for depth -->
  <circle cx="128" cy="128" r="128" fill="none" stroke="rgba(0,0,0,0.1)" stroke-width="20" opacity="0.3"/>
  
  <!-- Main frame -->
  <rect x="48" y="48" width="160" height="160" rx="12" ry="12" fill="url(#frame-gradient)" stroke="#e5e7eb" stroke-width="2"/>
  
  <!-- Inner content area -->
  <rect x="56" y="56" width="144" height="144" rx="8" ry="8" fill="#f8fafc" stroke="#e5e7eb" stroke-width="1"/>
  
  <!-- Corner brackets (top-left) -->
  <g fill="#ff6b35" stroke="#ff6b35" stroke-width="3">
    <!-- Top-left corner -->
    <path d="M 72 72 L 72 96 M 72 72 L 96 72" stroke-linecap="round"/>
    <!-- Top-right corner -->
    <path d="M 184 72 L 184 96 M 184 72 L 160 72" stroke-linecap="round"/>
    <!-- Bottom-left corner -->
    <path d="M 72 184 L 72 160 M 72 184 L 96 184" stroke-linecap="round"/>
    <!-- Bottom-right corner -->
    <path d="M 184 184 L 184 160 M 184 184 L 160 184" stroke-linecap="round"/>
  </g>
  
  <!-- Center crosshair -->
  <g fill="#ff6b35" stroke="#ff6b35" stroke-width="2">
    <line x1="108" y1="128" x2="148" y2="128" stroke-linecap="round"/>
    <line x1="128" y1="108" x2="128" y2="148" stroke-linecap="round"/>
  </g>
  
  <!-- Center dot -->
  <circle cx="128" cy="128" r="4" fill="#ff6b35"/>
  
  <!-- Subtle highlight on frame -->
  <rect x="48" y="48" width="160" height="4" rx="2" ry="2" fill="#ffffff" opacity="0.6"/>
  <rect x="48" y="48" width="4" height="160" rx="2" ry="2" fill="#ffffff" opacity="0.6"/>
  
  <!-- Modern accent elements -->
  <g fill="#ffffff" opacity="0.4">
    <circle cx="80" cy="80" r="2"/>
    <circle cx="176" cy="80" r="2"/>
    <circle cx="80" cy="176" r="2"/>
    <circle cx="176" cy="176" r="2"/>
  </g>
</svg>